<svg xmlns="http://www.w3.org/2000/svg" width="800" height="600"><style></style><rect class="boundary" x="0" y="0" fill="#000" width="800" height="600" data-type="pcb_background" data-pcb-layer="global"/><rect class="pcb-boundary" fill="none" stroke="#fff" stroke-width="0.3" x="14.8" y="77.8" width="770.4" height="444.4" data-type="pcb_boundary" data-pcb-layer="global"/><path class="pcb-board" d="M 29.6 522.2 L 770.4 522.2 L 771.8 522.2 L 773.3 521.9 L 774.7 521.6 L 776 521.1 L 777.4 520.5 L 778.6 519.7 L 779.8 518.9 L 780.8 517.9 L 781.8 516.8 L 782.7 515.6 L 783.4 514.4 L 784.1 513.1 L 784.5 511.7 L 784.9 510.3 L 785.1 508.9 L 785.2 507.4 L 785.2 92.6 L 785.1 91.1 L 784.9 89.7 L 784.5 88.3 L 784.1 86.9 L 783.4 85.6 L 782.7 84.4 L 781.8 83.2 L 780.8 82.1 L 779.8 81.1 L 778.6 80.3 L 777.4 79.5 L 776 78.9 L 774.7 78.4 L 773.3 78.1 L 771.8 77.8 L 770.4 77.8 L 29.6 77.8 L 28.2 77.8 L 26.7 78.1 L 25.3 78.4 L 24 78.9 L 22.6 79.5 L 21.4 80.3 L 20.2 81.1 L 19.2 82.1 L 18.2 83.2 L 17.3 84.4 L 16.6 85.6 L 15.9 86.9 L 15.5 88.3 L 15.1 89.7 L 14.9 91.1 L 14.8 92.6 L 14.8 507.4 L 14.9 508.9 L 15.1 510.3 L 15.5 511.7 L 15.9 513.1 L 16.6 514.4 L 17.3 515.6 L 18.2 516.8 L 19.2 517.9 L 20.2 518.9 L 21.4 519.7 L 22.6 520.5 L 24 521.1 L 25.3 521.6 L 26.7 521.9 L 28.2 522.2 L 29.6 522.2 Z" fill="none" stroke="rgba(255, 255, 255, 0.5)" stroke-width="1.5" data-type="pcb_board" data-pcb-layer="board"/><rect class="pcb-pad" fill="rgb(200, 52, 52)" x="420" y="267.3" width="14.8" height="8.9" data-type="pcb_smtpad" data-pcb-layer="top" data-pad-name="U1.RX" data-pad-net-name="RX"/><rect class="pcb-pad" fill="rgb(200, 52, 52)" x="420" y="286.1" width="14.8" height="8.9" data-type="pcb_smtpad" data-pcb-layer="top" data-pad-name="U1.TX" data-pad-net-name="TX"/><rect class="pcb-pad" fill="rgb(200, 52, 52)" x="420" y="305" width="14.8" height="8.9" data-type="pcb_smtpad" data-pcb-layer="top" data-pad-name="U1.VCC" data-pad-net-name="VCC"/><rect class="pcb-pad" fill="rgb(200, 52, 52)" x="420" y="323.8" width="14.8" height="8.9" data-type="pcb_smtpad" data-pcb-layer="top" data-pad-name="U1.GND" data-pad-net-name="GND"/><rect class="pcb-pad" fill="rgb(200, 52, 52)" x="483.7" y="323.8" width="14.8" height="8.9" data-type="pcb_smtpad" data-pcb-layer="top" data-pad-name="U1.CTS"/><rect class="pcb-pad" fill="rgb(200, 52, 52)" x="483.7" y="305" width="14.8" height="8.9" data-type="pcb_smtpad" data-pcb-layer="top" data-pad-name="U1.RTS"/><rect class="pcb-pad" fill="rgb(200, 52, 52)" x="483.7" y="286.1" width="14.8" height="8.9" data-type="pcb_smtpad" data-pcb-layer="top" data-pad-name="U1.pin7"/><rect class="pcb-pad" fill="rgb(200, 52, 52)" x="483.7" y="267.3" width="14.8" height="8.9" data-type="pcb_smtpad" data-pcb-layer="top" data-pad-name="U1.pin8"/><rect class="pcb-pad" fill="rgb(200, 52, 52)" x="307.8" y="293" width="11.9" height="14.1" data-type="pcb_smtpad" data-pcb-layer="top" data-pad-name="C1.pin1" data-pad-net-name="VCC"/><rect class="pcb-pad" fill="rgb(200, 52, 52)" x="332.2" y="293" width="11.9" height="14.1" data-type="pcb_smtpad" data-pcb-layer="top" data-pad-name="C1.pin2" data-pad-net-name="GND"/><rect class="pcb-pad" fill="rgb(200, 52, 52)" x="293" y="218.9" width="11.9" height="14.1" data-type="pcb_smtpad" data-pcb-layer="top" data-pad-name="R1.pin1" data-pad-net-name="RX"/><rect class="pcb-pad" fill="rgb(200, 52, 52)" x="317.4" y="218.9" width="11.9" height="14.1" data-type="pcb_smtpad" data-pcb-layer="top" data-pad-name="R1.pin2" data-pad-net-name="RX"/><rect class="pcb-pad" fill="rgb(200, 52, 52)" x="293" y="367" width="11.9" height="14.1" data-type="pcb_smtpad" data-pcb-layer="top" data-pad-name="R2.pin1" data-pad-net-name="TX"/><rect class="pcb-pad" fill="rgb(200, 52, 52)" x="317.4" y="367" width="11.9" height="14.1" data-type="pcb_smtpad" data-pcb-layer="top" data-pad-name="R2.pin2" data-pad-net-name="TX"/><rect x="60.7" y="227.4" width="85.9" height="145.2" class="pcb-silkscreen-rect pcb-silkscreen-top" data-pcb-silkscreen-rect-id="pcb_silkscreen_rect_0" data-type="pcb_silkscreen_rect" data-pcb-layer="top" fill="none" stroke="#f2eda1" stroke-width="3"/><text x="0" y="0" dx="0" dy="0" fill="#f2eda1" font-family="Arial, sans-serif" font-size="11.1" text-anchor="middle" dominant-baseline="central" transform="matrix(0,1,-1,0,131.9,300)" class="pcb-silkscreen-text pcb-silkscreen-top" data-pcb-silkscreen-text-id="pcb_silkscreen_text_0" stroke="none" data-type="pcb_silkscreen_text" data-pcb-layer="top">GROVE</text><path class="pcb-silkscreen pcb-silkscreen-top" d="M 436.3 337.4 L 436.3 262.6 L 451.6 262.6 L 452.2 265.6 L 453.8 268 L 456.3 269.7 L 459.3 270.3 L 462.2 269.7 L 464.7 268 L 466.3 265.6 L 466.9 262.6 L 482.2 262.6 L 482.2 337.4 L 436.3 337.4 Z" fill="none" stroke="#f2eda1" stroke-width="1.5" stroke-linecap="round" stroke-linejoin="round" data-pcb-component-id="pcb_component_1" data-pcb-silkscreen-path-id="pcb_silkscreen_path_0" data-type="pcb_silkscreen_path" data-pcb-layer="top"/><text x="0" y="0" dx="0" dy="0" fill="#f2eda1" font-family="Arial, sans-serif" font-size="9.2" text-anchor="middle" dominant-baseline="central" transform="matrix(1,0,0,1,459.3,256.7)" class="pcb-silkscreen-text pcb-silkscreen-top" data-pcb-silkscreen-text-id="pcb_silkscreen_text_1" stroke="none" data-type="pcb_silkscreen_text" data-pcb-layer="top">U1</text><path class="pcb-silkscreen pcb-silkscreen-top" d="M 338.1 287 L 304.8 287 L 304.8 313 L 338.1 313" fill="none" stroke="#f2eda1" stroke-width="1.5" stroke-linecap="round" stroke-linejoin="round" data-pcb-component-id="pcb_component_2" data-pcb-silkscreen-path-id="pcb_silkscreen_path_1" data-type="pcb_silkscreen_path" data-pcb-layer="top"/><text x="0" y="0" dx="0" dy="0" fill="#f2eda1" font-family="Arial, sans-serif" font-size="5.9" text-anchor="middle" dominant-baseline="central" transform="matrix(1,0,0,1,325.9,279.6)" class="pcb-silkscreen-text pcb-silkscreen-top" data-pcb-silkscreen-text-id="pcb_silkscreen_text_2" stroke="none" data-type="pcb_silkscreen_text" data-pcb-layer="top">C1</text><path class="pcb-silkscreen pcb-silkscreen-top" d="M 307.6 218.2 L 314.6 218.2" fill="none" stroke="#f2eda1" stroke-width="1.8" stroke-linecap="round" stroke-linejoin="round" data-pcb-component-id="pcb_component_3" data-pcb-silkscreen-path-id="pcb_silkscreen_path_2" data-type="pcb_silkscreen_path" data-pcb-layer="top"/><path class="pcb-silkscreen pcb-silkscreen-top" d="M 307.6 233.7 L 314.6 233.7" fill="none" stroke="#f2eda1" stroke-width="1.8" stroke-linecap="round" stroke-linejoin="round" data-pcb-component-id="pcb_component_3" data-pcb-silkscreen-path-id="pcb_silkscreen_path_3" data-type="pcb_silkscreen_path" data-pcb-layer="top"/><text x="0" y="0" dx="0" dy="0" fill="#f2eda1" font-family="Arial, sans-serif" font-size="5.9" text-anchor="middle" dominant-baseline="central" transform="matrix(1,0,0,1,311.1,205.6)" class="pcb-silkscreen-text pcb-silkscreen-top" data-pcb-silkscreen-text-id="pcb_silkscreen_text_3" stroke="none" data-type="pcb_silkscreen_text" data-pcb-layer="top">R1</text><path class="pcb-silkscreen pcb-silkscreen-top" d="M 307.6 366.3 L 314.6 366.3" fill="none" stroke="#f2eda1" stroke-width="1.8" stroke-linecap="round" stroke-linejoin="round" data-pcb-component-id="pcb_component_4" data-pcb-silkscreen-path-id="pcb_silkscreen_path_4" data-type="pcb_silkscreen_path" data-pcb-layer="top"/><path class="pcb-silkscreen pcb-silkscreen-top" d="M 307.6 381.8 L 314.6 381.8" fill="none" stroke="#f2eda1" stroke-width="1.8" stroke-linecap="round" stroke-linejoin="round" data-pcb-component-id="pcb_component_4" data-pcb-silkscreen-path-id="pcb_silkscreen_path_5" data-type="pcb_silkscreen_path" data-pcb-layer="top"/><text x="0" y="0" dx="0" dy="0" fill="#f2eda1" font-family="Arial, sans-serif" font-size="5.9" text-anchor="middle" dominant-baseline="central" transform="matrix(1,0,0,1,311.1,353.7)" class="pcb-silkscreen-text pcb-silkscreen-top" data-pcb-silkscreen-text-id="pcb_silkscreen_text_4" stroke="none" data-type="pcb_silkscreen_text" data-pcb-layer="top">R2</text><text x="0" y="0" dx="0" dy="0" fill="#f2eda1" font-family="Arial, sans-serif" font-size="8.9" text-anchor="middle" dominant-baseline="central" transform="matrix(1,0,0,1,400,100)" class="pcb-silkscreen-text pcb-silkscreen-top" data-pcb-silkscreen-text-id="pcb_silkscreen_text_5" stroke="none" data-type="pcb_silkscreen_text" data-pcb-layer="top">Mini Camera</text><text x="0" y="0" dx="0" dy="0" fill="#f2eda1" font-family="Arial, sans-serif" font-size="6.7" text-anchor="middle" dominant-baseline="central" transform="matrix(1,0,0,1,400,500)" class="pcb-silkscreen-text pcb-silkscreen-top" data-pcb-silkscreen-text-id="pcb_silkscreen_text_6" stroke="none" data-type="pcb_silkscreen_text" data-pcb-layer="top">HAND-AUTHORED</text><g data-type="pcb_plated_hole" data-pcb-layer="through" data-pad-name="J1.RX"><circle class="pcb-hole-outer" fill="rgb(200, 52, 52)" cx="103.7" cy="255.6" r="11.9" data-type="pcb_plated_hole" data-pcb-layer="top"/><circle class="pcb-hole-inner" fill="#FF2600" cx="103.7" cy="255.6" r="6.7" data-type="pcb_plated_hole_drill" data-pcb-layer="drill"/></g><g data-type="pcb_plated_hole" data-pcb-layer="through" data-pad-name="J1.TX"><circle class="pcb-hole-outer" fill="rgb(200, 52, 52)" cx="103.7" cy="285.2" r="11.9" data-type="pcb_plated_hole" data-pcb-layer="top"/><circle class="pcb-hole-inner" fill="#FF2600" cx="103.7" cy="285.2" r="6.7" data-type="pcb_plated_hole_drill" data-pcb-layer="drill"/></g><g data-type="pcb_plated_hole" data-pcb-layer="through" data-pad-name="J1.VCC"><circle class="pcb-hole-outer" fill="rgb(200, 52, 52)" cx="103.7" cy="314.8" r="11.9" data-type="pcb_plated_hole" data-pcb-layer="top"/><circle class="pcb-hole-inner" fill="#FF2600" cx="103.7" cy="314.8" r="6.7" data-type="pcb_plated_hole_drill" data-pcb-layer="drill"/></g><g data-type="pcb_plated_hole" data-pcb-layer="through" data-pad-name="J1.GND"><circle class="pcb-hole-outer" fill="rgb(200, 52, 52)" cx="103.7" cy="344.4" r="11.9" data-type="pcb_plated_hole" data-pcb-layer="top"/><circle class="pcb-hole-inner" fill="#FF2600" cx="103.7" cy="344.4" r="6.7" data-type="pcb_plated_hole_drill" data-pcb-layer="drill"/></g><circle class="pcb-hole" cx="74.1" cy="477.8" r="16.3" fill="#FF2600" data-type="pcb_hole" data-pcb-layer="drill"/><circle class="pcb-hole" cx="725.9" cy="477.8" r="16.3" fill="#FF2600" data-type="pcb_hole" data-pcb-layer="drill"/><circle class="pcb-hole" cx="725.9" cy="122.2" r="16.3" fill="#FF2600" data-type="pcb_hole" data-pcb-layer="drill"/><circle class="pcb-hole" cx="74.1" cy="122.2" r="16.3" fill="#FF2600" data-type="pcb_hole" data-pcb-layer="drill"/></svg>