<svg xmlns="http://www.w3.org/2000/svg" width="800" height="600"><style></style><rect class="boundary" x="0" y="0" fill="#000" width="800" height="600" data-type="pcb_background" data-pcb-layer="global"/><rect class="pcb-boundary" fill="none" stroke="#fff" stroke-width="0.3" x="24.7" y="52.7" width="750.5" height="494.6" data-type="pcb_boundary" data-pcb-layer="global"/><path class="pcb-board" d="M 49.5 547.3 L 741.9 547.3 L 744.3 547.2 L 746.7 546.8 L 749.1 546.2 L 751.3 545.4 L 753.5 544.4 L 755.6 543.1 L 757.6 541.7 L 759.4 540.1 L 761 538.3 L 762.4 536.3 L 763.7 534.2 L 764.7 532 L 765.6 529.7 L 766.1 527.4 L 766.5 525 L 766.6 522.6 L 766.6 77.4 L 766.5 75 L 766.1 72.6 L 765.6 70.3 L 764.7 68 L 763.7 65.8 L 762.4 63.7 L 761 61.7 L 759.4 59.9 L 757.6 58.3 L 755.6 56.9 L 753.5 55.6 L 751.3 54.6 L 749.1 53.8 L 746.7 53.2 L 744.3 52.8 L 741.9 52.7 L 49.5 52.7 L 47 52.8 L 44.6 53.2 L 42.3 53.8 L 40 54.6 L 37.8 55.6 L 35.7 56.9 L 33.8 58.3 L 32 59.9 L 30.3 61.7 L 28.9 63.7 L 27.6 65.8 L 26.6 68 L 25.8 70.3 L 25.2 72.6 L 24.8 75 L 24.7 77.4 L 24.7 522.6 L 24.8 525 L 25.2 527.4 L 25.8 529.7 L 26.6 532 L 27.6 534.2 L 28.9 536.3 L 30.3 538.3 L 32 540.1 L 33.8 541.7 L 35.7 543.1 L 37.8 544.4 L 40 545.4 L 42.3 546.2 L 44.6 546.8 L 47 547.2 L 49.5 547.3 Z" fill="none" stroke="rgba(255, 255, 255, 0.5)" stroke-width="2.5" data-type="pcb_board" data-pcb-layer="board"/><rect class="pcb-pad" fill="rgb(200, 52, 52)" x="227.5" y="392.7" width="32.8" height="14.8" data-type="pcb_smtpad" data-pcb-layer="top" data-pad-name="U2.GND" data-pad-net-name="GND"/><rect class="pcb-pad" fill="rgb(200, 52, 52)" x="227.5" y="439.7" width="32.8" height="14.8" data-type="pcb_smtpad" data-pcb-layer="top" data-pad-name="U2.VOUT" data-pad-net-name="VDD"/><rect class="pcb-pad" fill="rgb(200, 52, 52)" x="283.8" y="416.2" width="32.8" height="14.8" data-type="pcb_smtpad" data-pcb-layer="top" data-pad-name="U2.VIN" data-pad-net-name="VCC"/><rect class="pcb-pad" fill="rgb(200, 52, 52)" x="340.6" y="387.2" width="19.8" height="23.5" data-type="pcb_smtpad" data-pcb-layer="top" data-pad-name="C2.pin1" data-pad-net-name="VCC"/><rect class="pcb-pad" fill="rgb(200, 52, 52)" x="381.5" y="387.2" width="19.8" height="23.5" data-type="pcb_smtpad" data-pcb-layer="top" data-pad-name="C2.pin2" data-pad-net-name="GND"/><rect class="pcb-pad" fill="rgb(200, 52, 52)" x="538.5" y="288.3" width="19.8" height="23.5" data-type="pcb_smtpad" data-pcb-layer="top" data-pad-name="C1.pin1" data-pad-net-name="VDD"/><rect class="pcb-pad" fill="rgb(200, 52, 52)" x="579.3" y="288.3" width="19.8" height="23.5" data-type="pcb_smtpad" data-pcb-layer="top" data-pad-name="C1.pin2" data-pad-net-name="GND"/><rect class="pcb-pad" fill="rgb(200, 52, 52)" x="167.5" y="164.6" width="19.8" height="23.5" data-type="pcb_smtpad" data-pcb-layer="top" data-pad-name="R1.pin1" data-pad-net-name="VDD"/><rect class="pcb-pad" fill="rgb(200, 52, 52)" x="208.3" y="164.6" width="19.8" height="23.5" data-type="pcb_smtpad" data-pcb-layer="top" data-pad-name="R1.pin2" data-pad-net-name="SCL"/><rect class="pcb-pad" fill="rgb(200, 52, 52)" x="167.5" y="411.9" width="19.8" height="23.5" data-type="pcb_smtpad" data-pcb-layer="top" data-pad-name="R2.pin1" data-pad-net-name="VDD"/><rect class="pcb-pad" fill="rgb(200, 52, 52)" x="208.3" y="411.9" width="19.8" height="23.5" data-type="pcb_smtpad" data-pcb-layer="top" data-pad-name="R2.pin2" data-pad-net-name="SDA"/><rect class="pcb-pad" fill="rgb(200, 52, 52)" x="440.5" y="342.8" width="14.1" height="48.2" rx="7" ry="7" data-type="pcb_smtpad" data-pcb-layer="top" data-pad-name="U1.VDD" data-pad-net-name="VDD"/><rect class="pcb-pad" fill="rgb(200, 52, 52)" x="471.9" y="342.8" width="14.1" height="48.2" rx="7" ry="7" data-type="pcb_smtpad" data-pcb-layer="top" data-pad-name="U1.GND" data-pad-net-name="GND"/><rect class="pcb-pad" fill="rgb(200, 52, 52)" x="503.3" y="342.8" width="14.1" height="48.2" rx="7" ry="7" data-type="pcb_smtpad" data-pcb-layer="top" data-pad-name="U1.OUT" data-pad-net-name="SIG"/><rect class="pcb-pad" fill="rgb(200, 52, 52)" x="534.7" y="342.8" width="14.1" height="48.2" rx="7" ry="7" data-type="pcb_smtpad" data-pcb-layer="top" data-pad-name="U1.DIR"/><rect class="pcb-pad" fill="rgb(200, 52, 52)" x="440.5" y="209" width="14.1" height="48.2" rx="7" ry="7" data-type="pcb_smtpad" data-pcb-layer="top" data-pad-name="U1.VDD_2"/><rect class="pcb-pad" fill="rgb(200, 52, 52)" x="471.9" y="209" width="14.1" height="48.2" rx="7" ry="7" data-type="pcb_smtpad" data-pcb-layer="top" data-pad-name="U1.GND_2"/><rect class="pcb-pad" fill="rgb(200, 52, 52)" x="503.3" y="209" width="14.1" height="48.2" rx="7" ry="7" data-type="pcb_smtpad" data-pcb-layer="top" data-pad-name="U1.SDA" data-pad-net-name="SDA"/><rect class="pcb-pad" fill="rgb(200, 52, 52)" x="534.7" y="209" width="14.1" height="48.2" rx="7" ry="7" data-type="pcb_smtpad" data-pcb-layer="top" data-pad-name="U1.SCL" data-pad-net-name="SCL"/><rect x="101.4" y="178.8" width="143.4" height="242.3" class="pcb-silkscreen-rect pcb-silkscreen-top" data-pcb-silkscreen-rect-id="pcb_silkscreen_rect_0" data-type="pcb_silkscreen_rect" data-pcb-layer="top" fill="none" stroke="#f2eda1" stroke-width="4.9"/><text x="0" y="0" dx="0" dy="0" fill="#f2eda1" font-family="Arial, sans-serif" font-size="18.5" text-anchor="middle" dominant-baseline="central" transform="matrix(0,1,-1,0,220.1,300)" class="pcb-silkscreen-text pcb-silkscreen-top" data-pcb-silkscreen-text-id="pcb_silkscreen_text_0" stroke="none" data-type="pcb_silkscreen_text" data-pcb-layer="top">GROVE</text><text x="0" y="0" dx="0" dy="0" fill="#f2eda1" font-family="Arial, sans-serif" font-size="12.4" text-anchor="middle" dominant-baseline="central" transform="matrix(1,0,0,1,272,374.2)" class="pcb-silkscreen-text pcb-silkscreen-top" data-pcb-silkscreen-text-id="pcb_silkscreen_text_1" stroke="none" data-type="pcb_silkscreen_text" data-pcb-layer="top">U2</text><path class="pcb-silkscreen pcb-silkscreen-top" d="M 391.3 377.3 L 335.7 377.3 L 335.7 420.6 L 391.3 420.6" fill="none" stroke="#f2eda1" stroke-width="2.5" stroke-linecap="round" stroke-linejoin="round" data-pcb-component-id="pcb_component_3" data-pcb-silkscreen-path-id="pcb_silkscreen_path_0" data-type="pcb_silkscreen_path" data-pcb-layer="top"/><text x="0" y="0" dx="0" dy="0" fill="#f2eda1" font-family="Arial, sans-serif" font-size="9.9" text-anchor="middle" dominant-baseline="central" transform="matrix(1,0,0,1,370.9,364.9)" class="pcb-silkscreen-text pcb-silkscreen-top" data-pcb-silkscreen-text-id="pcb_silkscreen_text_2" stroke="none" data-type="pcb_silkscreen_text" data-pcb-layer="top">C2</text><path class="pcb-silkscreen pcb-silkscreen-top" d="M 589.2 278.4 L 533.5 278.4 L 533.5 321.6 L 589.2 321.6" fill="none" stroke="#f2eda1" stroke-width="2.5" stroke-linecap="round" stroke-linejoin="round" data-pcb-component-id="pcb_component_4" data-pcb-silkscreen-path-id="pcb_silkscreen_path_1" data-type="pcb_silkscreen_path" data-pcb-layer="top"/><text x="0" y="0" dx="0" dy="0" fill="#f2eda1" font-family="Arial, sans-serif" font-size="9.9" text-anchor="middle" dominant-baseline="central" transform="matrix(1,0,0,1,568.8,266)" class="pcb-silkscreen-text pcb-silkscreen-top" data-pcb-silkscreen-text-id="pcb_silkscreen_text_3" stroke="none" data-type="pcb_silkscreen_text" data-pcb-layer="top">C1</text><path class="pcb-silkscreen pcb-silkscreen-top" d="M 192 163.4 L 203.7 163.4" fill="none" stroke="#f2eda1" stroke-width="3" stroke-linecap="round" stroke-linejoin="round" data-pcb-component-id="pcb_component_5" data-pcb-silkscreen-path-id="pcb_silkscreen_path_2" data-type="pcb_silkscreen_path" data-pcb-layer="top"/><path class="pcb-silkscreen pcb-silkscreen-top" d="M 192 189.3 L 203.7 189.3" fill="none" stroke="#f2eda1" stroke-width="3" stroke-linecap="round" stroke-linejoin="round" data-pcb-component-id="pcb_component_5" data-pcb-silkscreen-path-id="pcb_silkscreen_path_3" data-type="pcb_silkscreen_path" data-pcb-layer="top"/><text x="0" y="0" dx="0" dy="0" fill="#f2eda1" font-family="Arial, sans-serif" font-size="9.9" text-anchor="middle" dominant-baseline="central" transform="matrix(1,0,0,1,197.8,142.3)" class="pcb-silkscreen-text pcb-silkscreen-top" data-pcb-silkscreen-text-id="pcb_silkscreen_text_4" stroke="none" data-type="pcb_silkscreen_text" data-pcb-layer="top">R1</text><path class="pcb-silkscreen pcb-silkscreen-top" d="M 192 410.7 L 203.7 410.7" fill="none" stroke="#f2eda1" stroke-width="3" stroke-linecap="round" stroke-linejoin="round" data-pcb-component-id="pcb_component_6" data-pcb-silkscreen-path-id="pcb_silkscreen_path_4" data-type="pcb_silkscreen_path" data-pcb-layer="top"/><path class="pcb-silkscreen pcb-silkscreen-top" d="M 192 436.6 L 203.7 436.6" fill="none" stroke="#f2eda1" stroke-width="3" stroke-linecap="round" stroke-linejoin="round" data-pcb-component-id="pcb_component_6" data-pcb-silkscreen-path-id="pcb_silkscreen_path_5" data-type="pcb_silkscreen_path" data-pcb-layer="top"/><text x="0" y="0" dx="0" dy="0" fill="#f2eda1" font-family="Arial, sans-serif" font-size="9.9" text-anchor="middle" dominant-baseline="central" transform="matrix(1,0,0,1,197.8,457.7)" class="pcb-silkscreen-text pcb-silkscreen-top" data-pcb-silkscreen-text-id="pcb_silkscreen_text_5" stroke="none" data-type="pcb_silkscreen_text" data-pcb-layer="top">R2</text><path class="pcb-silkscreen pcb-silkscreen-top" d="M 643 166.5 L 643 123.2 L 775.3 123.2 L 775.3 262.3" fill="none" stroke="#f2eda1" stroke-width="2.5" stroke-linecap="round" stroke-linejoin="round" data-pcb-component-id="pcb_component_7" data-pcb-silkscreen-path-id="pcb_silkscreen_path_6" data-type="pcb_silkscreen_path" data-pcb-layer="top"/><path class="pcb-silkscreen pcb-silkscreen-top" d="M 775.3 337.7 L 775.3 476.8 L 643 476.8 L 643 433.5" fill="none" stroke="#f2eda1" stroke-width="2.5" stroke-linecap="round" stroke-linejoin="round" data-pcb-component-id="pcb_component_7" data-pcb-silkscreen-path-id="pcb_silkscreen_path_7" data-type="pcb_silkscreen_path" data-pcb-layer="top"/><text x="0" y="0" dx="0" dy="0" fill="#f2eda1" font-family="Arial, sans-serif" font-size="17.3" text-anchor="middle" dominant-baseline="central" transform="matrix(1,0,0,1,709.1,98.5)" class="pcb-silkscreen-text pcb-silkscreen-top" data-pcb-silkscreen-text-id="pcb_silkscreen_text_6" stroke="none" data-type="pcb_silkscreen_text" data-pcb-layer="top">RV1</text><text x="0" y="0" dx="0" dy="0" fill="#f2eda1" font-family="Arial, sans-serif" font-size="14.8" text-anchor="middle" dominant-baseline="central" transform="matrix(1,0,0,1,395.7,89.8)" class="pcb-silkscreen-text pcb-silkscreen-top" data-pcb-silkscreen-text-id="pcb_silkscreen_text_7" stroke="none" data-type="pcb_silkscreen_text" data-pcb-layer="top">12 bit Magnetic Rotary Position…</text><text x="0" y="0" dx="0" dy="0" fill="#f2eda1" font-family="Arial, sans-serif" font-size="11.1" text-anchor="middle" dominant-baseline="central" transform="matrix(1,0,0,1,395.7,510.2)" class="pcb-silkscreen-text pcb-silkscreen-top" data-pcb-silkscreen-text-id="pcb_silkscreen_text_8" stroke="none" data-type="pcb_silkscreen_text" data-pcb-layer="top">HAND-AUTHORED</text><path class="pcb-silkscreen pcb-silkscreen-top" d="M 432.8 337.1 L 556.4 337.1" fill="none" stroke="#f2eda1" stroke-width="6.3" stroke-linecap="round" stroke-linejoin="round" data-pcb-component-id="pcb_component_1" data-pcb-silkscreen-path-id="pcb_silkscreen_path_8" data-type="pcb_silkscreen_path" data-pcb-layer="top"/><path class="pcb-silkscreen pcb-silkscreen-top" d="M 432.8 262.9 L 556.4 262.9" fill="none" stroke="#f2eda1" stroke-width="6.3" stroke-linecap="round" stroke-linejoin="round" data-pcb-component-id="pcb_component_1" data-pcb-silkscreen-path-id="pcb_silkscreen_path_9" data-type="pcb_silkscreen_path" data-pcb-layer="top"/><path class="pcb-silkscreen pcb-silkscreen-top" d="M 432.8 337.1 L 432.8 318" fill="none" stroke="#f2eda1" stroke-width="6.3" stroke-linecap="round" stroke-linejoin="round" data-pcb-component-id="pcb_component_1" data-pcb-silkscreen-path-id="pcb_silkscreen_path_10" data-type="pcb_silkscreen_path" data-pcb-layer="top"/><path class="pcb-silkscreen pcb-silkscreen-top" d="M 432.8 262.9 L 432.8 282" fill="none" stroke="#f2eda1" stroke-width="6.3" stroke-linecap="round" stroke-linejoin="round" data-pcb-component-id="pcb_component_1" data-pcb-silkscreen-path-id="pcb_silkscreen_path_11" data-type="pcb_silkscreen_path" data-pcb-layer="top"/><path class="pcb-silkscreen pcb-silkscreen-top" d="M 556.4 262.9 L 556.4 337.1" fill="none" stroke="#f2eda1" stroke-width="6.3" stroke-linecap="round" stroke-linejoin="round" data-pcb-component-id="pcb_component_1" data-pcb-silkscreen-path-id="pcb_silkscreen_path_12" data-type="pcb_silkscreen_path" data-pcb-layer="top"/><path class="pcb-silkscreen pcb-silkscreen-top" d="M 454.3 325.1 L 454.2 326.1 L 453.8 327 L 453.2 327.8 L 452.5 328.3 L 451.6 328.7 L 450.6 328.8 L 449.7 328.7 L 448.8 328.3 L 448 327.8 L 447.4 327 L 447 326.1 L 446.9 325.1 L 447 324.2 L 447.4 323.3 L 448 322.5 L 448.8 321.9 L 449.7 321.5 L 450.6 321.4 L 451.6 321.5 L 452.5 321.9 L 453.2 322.5 L 453.8 323.3 L 454.2 324.2 L 454.3 325.1 Z" fill="none" stroke="#f2eda1" stroke-width="7.4" stroke-linecap="round" stroke-linejoin="round" data-pcb-component-id="pcb_component_1" data-pcb-silkscreen-path-id="pcb_silkscreen_path_13" data-type="pcb_silkscreen_path" data-pcb-layer="top"/><path class="pcb-silkscreen pcb-silkscreen-top" d="M 432.8 318 L 438.6 316.6 L 443.7 313.4 L 447.5 308.7 L 449.5 303.1 L 449.5 297 L 447.6 291.4 L 443.8 286.6 L 438.8 283.4 L 432.9 282" fill="none" stroke="#f2eda1" stroke-width="6.3" stroke-linecap="round" stroke-linejoin="round" data-pcb-component-id="pcb_component_1" data-pcb-silkscreen-path-id="pcb_silkscreen_path_14" data-type="pcb_silkscreen_path" data-pcb-layer="top"/><g data-type="pcb_plated_hole" data-pcb-layer="through" data-pad-name="J1.SCL"><circle class="pcb-hole-outer" fill="rgb(200, 52, 52)" cx="173.1" cy="225.8" r="19.8" data-type="pcb_plated_hole" data-pcb-layer="top"/><circle class="pcb-hole-inner" fill="#FF2600" cx="173.1" cy="225.8" r="11.1" data-type="pcb_plated_hole_drill" data-pcb-layer="drill"/></g><g data-type="pcb_plated_hole" data-pcb-layer="through" data-pad-name="J1.SDA"><circle class="pcb-hole-outer" fill="rgb(200, 52, 52)" cx="173.1" cy="275.3" r="19.8" data-type="pcb_plated_hole" data-pcb-layer="top"/><circle class="pcb-hole-inner" fill="#FF2600" cx="173.1" cy="275.3" r="11.1" data-type="pcb_plated_hole_drill" data-pcb-layer="drill"/></g><g data-type="pcb_plated_hole" data-pcb-layer="through" data-pad-name="J1.VCC"><circle class="pcb-hole-outer" fill="rgb(200, 52, 52)" cx="173.1" cy="324.7" r="19.8" data-type="pcb_plated_hole" data-pcb-layer="top"/><circle class="pcb-hole-inner" fill="#FF2600" cx="173.1" cy="324.7" r="11.1" data-type="pcb_plated_hole_drill" data-pcb-layer="drill"/></g><g data-type="pcb_plated_hole" data-pcb-layer="through" data-pad-name="J1.GND"><circle class="pcb-hole-outer" fill="rgb(200, 52, 52)" cx="173.1" cy="374.2" r="19.8" data-type="pcb_plated_hole" data-pcb-layer="top"/><circle class="pcb-hole-inner" fill="#FF2600" cx="173.1" cy="374.2" r="11.1" data-type="pcb_plated_hole_drill" data-pcb-layer="drill"/></g><g data-type="pcb_plated_hole" data-pcb-layer="through" data-pad-name="RV1.pin1"><circle class="pcb-hole-outer" fill="rgb(200, 52, 52)" cx="643" cy="176.4" r="29.1" data-type="pcb_plated_hole" data-pcb-layer="top"/><circle class="pcb-hole-inner" fill="#FF2600" cx="643" cy="176.4" r="15.5" data-type="pcb_plated_hole_drill" data-pcb-layer="drill"/></g><g data-type="pcb_plated_hole" data-pcb-layer="through" data-pad-name="RV1.pin2"><circle class="pcb-hole-outer" fill="rgb(200, 52, 52)" cx="741.9" cy="300" r="29.1" data-type="pcb_plated_hole" data-pcb-layer="top"/><circle class="pcb-hole-inner" fill="#FF2600" cx="741.9" cy="300" r="15.5" data-type="pcb_plated_hole_drill" data-pcb-layer="drill"/></g><g data-type="pcb_plated_hole" data-pcb-layer="through" data-pad-name="RV1.pin3"><circle class="pcb-hole-outer" fill="rgb(200, 52, 52)" cx="643" cy="423.6" r="29.1" data-type="pcb_plated_hole" data-pcb-layer="top"/><circle class="pcb-hole-inner" fill="#FF2600" cx="643" cy="423.6" r="15.5" data-type="pcb_plated_hole_drill" data-pcb-layer="drill"/></g><circle class="pcb-hole" cx="123.6" cy="473.1" r="27.2" fill="#FF2600" data-type="pcb_hole" data-pcb-layer="drill"/><circle class="pcb-hole" cx="667.7" cy="473.1" r="27.2" fill="#FF2600" data-type="pcb_hole" data-pcb-layer="drill"/><circle class="pcb-hole" cx="667.7" cy="126.9" r="27.2" fill="#FF2600" data-type="pcb_hole" data-pcb-layer="drill"/><circle class="pcb-hole" cx="123.6" cy="126.9" r="27.2" fill="#FF2600" data-type="pcb_hole" data-pcb-layer="drill"/></svg>