<svg xmlns="http://www.w3.org/2000/svg" width="800" height="600"><style></style><rect class="boundary" x="0" y="0" fill="#000" width="800" height="600" data-type="pcb_background" data-pcb-layer="global"/><rect class="pcb-boundary" fill="none" stroke="#fff" stroke-width="0.3" x="10.5" y="214.7" width="778.9" height="170.5" data-type="pcb_boundary" data-pcb-layer="global"/><path class="pcb-board" d="M 21.1 384.2 L 778.9 384.2 L 780 384.2 L 781 384 L 782 383.8 L 783 383.4 L 783.9 383 L 784.8 382.4 L 785.6 381.8 L 786.4 381.1 L 787.1 380.4 L 787.7 379.5 L 788.2 378.6 L 788.7 377.7 L 789 376.7 L 789.3 375.7 L 789.4 374.7 L 789.5 373.7 L 789.5 226.3 L 789.4 225.3 L 789.3 224.3 L 789 223.3 L 788.7 222.3 L 788.2 221.4 L 787.7 220.5 L 787.1 219.6 L 786.4 218.9 L 785.6 218.2 L 784.8 217.6 L 783.9 217 L 783 216.6 L 782 216.2 L 781 216 L 780 215.8 L 778.9 215.8 L 21.1 215.8 L 20 215.8 L 19 216 L 18 216.2 L 17 216.6 L 16.1 217 L 15.2 217.6 L 14.4 218.2 L 13.6 218.9 L 12.9 219.6 L 12.3 220.5 L 11.8 221.4 L 11.3 222.3 L 11 223.3 L 10.7 224.3 L 10.6 225.3 L 10.5 226.3 L 10.5 373.7 L 10.6 374.7 L 10.7 375.7 L 11 376.7 L 11.3 377.7 L 11.8 378.6 L 12.3 379.5 L 12.9 380.4 L 13.6 381.1 L 14.4 381.8 L 15.2 382.4 L 16.1 383 L 17 383.4 L 18 383.8 L 19 384 L 20 384.2 L 21.1 384.2 Z" fill="none" stroke="rgba(255, 255, 255, 0.5)" stroke-width="1.1" data-type="pcb_board" data-pcb-layer="board"/><rect class="pcb-pad" fill="rgb(200, 52, 52)" x="114.7" y="287.9" width="8.4" height="11.1" data-type="pcb_smtpad" data-pcb-layer="top" data-pad-name="LED1.DIN"/><rect class="pcb-pad" fill="rgb(200, 52, 52)" x="114.7" y="301.1" width="8.4" height="11.1" data-type="pcb_smtpad" data-pcb-layer="top" data-pad-name="LED1.DOUT"/><rect class="pcb-pad" fill="rgb(200, 52, 52)" x="150.5" y="287.9" width="8.4" height="11.1" data-type="pcb_smtpad" data-pcb-layer="top" data-pad-name="LED1.VCC"/><rect class="pcb-pad" fill="rgb(200, 52, 52)" x="150.5" y="301.1" width="8.4" height="11.1" data-type="pcb_smtpad" data-pcb-layer="top" data-pad-name="LED1.GND"/><rect class="pcb-pad" fill="rgb(200, 52, 52)" x="177.9" y="287.9" width="8.4" height="11.1" data-type="pcb_smtpad" data-pcb-layer="top" data-pad-name="LED2.DIN"/><rect class="pcb-pad" fill="rgb(200, 52, 52)" x="177.9" y="301.1" width="8.4" height="11.1" data-type="pcb_smtpad" data-pcb-layer="top" data-pad-name="LED2.DOUT"/><rect class="pcb-pad" fill="rgb(200, 52, 52)" x="213.7" y="287.9" width="8.4" height="11.1" data-type="pcb_smtpad" data-pcb-layer="top" data-pad-name="LED2.VCC"/><rect class="pcb-pad" fill="rgb(200, 52, 52)" x="213.7" y="301.1" width="8.4" height="11.1" data-type="pcb_smtpad" data-pcb-layer="top" data-pad-name="LED2.GND"/><rect class="pcb-pad" fill="rgb(200, 52, 52)" x="241.1" y="287.9" width="8.4" height="11.1" data-type="pcb_smtpad" data-pcb-layer="top" data-pad-name="LED3.DIN"/><rect class="pcb-pad" fill="rgb(200, 52, 52)" x="241.1" y="301.1" width="8.4" height="11.1" data-type="pcb_smtpad" data-pcb-layer="top" data-pad-name="LED3.DOUT"/><rect class="pcb-pad" fill="rgb(200, 52, 52)" x="276.8" y="287.9" width="8.4" height="11.1" data-type="pcb_smtpad" data-pcb-layer="top" data-pad-name="LED3.VCC"/><rect class="pcb-pad" fill="rgb(200, 52, 52)" x="276.8" y="301.1" width="8.4" height="11.1" data-type="pcb_smtpad" data-pcb-layer="top" data-pad-name="LED3.GND"/><rect class="pcb-pad" fill="rgb(200, 52, 52)" x="304.2" y="287.9" width="8.4" height="11.1" data-type="pcb_smtpad" data-pcb-layer="top" data-pad-name="LED4.DIN"/><rect class="pcb-pad" fill="rgb(200, 52, 52)" x="304.2" y="301.1" width="8.4" height="11.1" data-type="pcb_smtpad" data-pcb-layer="top" data-pad-name="LED4.DOUT"/><rect class="pcb-pad" fill="rgb(200, 52, 52)" x="340" y="287.9" width="8.4" height="11.1" data-type="pcb_smtpad" data-pcb-layer="top" data-pad-name="LED4.VCC"/><rect class="pcb-pad" fill="rgb(200, 52, 52)" x="340" y="301.1" width="8.4" height="11.1" data-type="pcb_smtpad" data-pcb-layer="top" data-pad-name="LED4.GND"/><rect class="pcb-pad" fill="rgb(200, 52, 52)" x="367.4" y="287.9" width="8.4" height="11.1" data-type="pcb_smtpad" data-pcb-layer="top" data-pad-name="LED5.DIN"/><rect class="pcb-pad" fill="rgb(200, 52, 52)" x="367.4" y="301.1" width="8.4" height="11.1" data-type="pcb_smtpad" data-pcb-layer="top" data-pad-name="LED5.DOUT"/><rect class="pcb-pad" fill="rgb(200, 52, 52)" x="403.2" y="287.9" width="8.4" height="11.1" data-type="pcb_smtpad" data-pcb-layer="top" data-pad-name="LED5.VCC"/><rect class="pcb-pad" fill="rgb(200, 52, 52)" x="403.2" y="301.1" width="8.4" height="11.1" data-type="pcb_smtpad" data-pcb-layer="top" data-pad-name="LED5.GND"/><rect class="pcb-pad" fill="rgb(200, 52, 52)" x="430.5" y="287.9" width="8.4" height="11.1" data-type="pcb_smtpad" data-pcb-layer="top" data-pad-name="LED6.DIN"/><rect class="pcb-pad" fill="rgb(200, 52, 52)" x="430.5" y="301.1" width="8.4" height="11.1" data-type="pcb_smtpad" data-pcb-layer="top" data-pad-name="LED6.DOUT"/><rect class="pcb-pad" fill="rgb(200, 52, 52)" x="466.3" y="287.9" width="8.4" height="11.1" data-type="pcb_smtpad" data-pcb-layer="top" data-pad-name="LED6.VCC"/><rect class="pcb-pad" fill="rgb(200, 52, 52)" x="466.3" y="301.1" width="8.4" height="11.1" data-type="pcb_smtpad" data-pcb-layer="top" data-pad-name="LED6.GND"/><rect class="pcb-pad" fill="rgb(200, 52, 52)" x="493.7" y="287.9" width="8.4" height="11.1" data-type="pcb_smtpad" data-pcb-layer="top" data-pad-name="LED7.DIN"/><rect class="pcb-pad" fill="rgb(200, 52, 52)" x="493.7" y="301.1" width="8.4" height="11.1" data-type="pcb_smtpad" data-pcb-layer="top" data-pad-name="LED7.DOUT"/><rect class="pcb-pad" fill="rgb(200, 52, 52)" x="529.5" y="287.9" width="8.4" height="11.1" data-type="pcb_smtpad" data-pcb-layer="top" data-pad-name="LED7.VCC"/><rect class="pcb-pad" fill="rgb(200, 52, 52)" x="529.5" y="301.1" width="8.4" height="11.1" data-type="pcb_smtpad" data-pcb-layer="top" data-pad-name="LED7.GND"/><rect class="pcb-pad" fill="rgb(200, 52, 52)" x="556.8" y="287.9" width="8.4" height="11.1" data-type="pcb_smtpad" data-pcb-layer="top" data-pad-name="LED8.DIN"/><rect class="pcb-pad" fill="rgb(200, 52, 52)" x="556.8" y="301.1" width="8.4" height="11.1" data-type="pcb_smtpad" data-pcb-layer="top" data-pad-name="LED8.DOUT"/><rect class="pcb-pad" fill="rgb(200, 52, 52)" x="592.6" y="287.9" width="8.4" height="11.1" data-type="pcb_smtpad" data-pcb-layer="top" data-pad-name="LED8.VCC"/><rect class="pcb-pad" fill="rgb(200, 52, 52)" x="592.6" y="301.1" width="8.4" height="11.1" data-type="pcb_smtpad" data-pcb-layer="top" data-pad-name="LED8.GND"/><rect class="pcb-pad" fill="rgb(200, 52, 52)" x="620" y="287.9" width="8.4" height="11.1" data-type="pcb_smtpad" data-pcb-layer="top" data-pad-name="LED9.DIN"/><rect class="pcb-pad" fill="rgb(200, 52, 52)" x="620" y="301.1" width="8.4" height="11.1" data-type="pcb_smtpad" data-pcb-layer="top" data-pad-name="LED9.DOUT"/><rect class="pcb-pad" fill="rgb(200, 52, 52)" x="655.8" y="287.9" width="8.4" height="11.1" data-type="pcb_smtpad" data-pcb-layer="top" data-pad-name="LED9.VCC"/><rect class="pcb-pad" fill="rgb(200, 52, 52)" x="655.8" y="301.1" width="8.4" height="11.1" data-type="pcb_smtpad" data-pcb-layer="top" data-pad-name="LED9.GND"/><rect class="pcb-pad" fill="rgb(200, 52, 52)" x="683.2" y="287.9" width="8.4" height="11.1" data-type="pcb_smtpad" data-pcb-layer="top" data-pad-name="LED10.DIN"/><rect class="pcb-pad" fill="rgb(200, 52, 52)" x="683.2" y="301.1" width="8.4" height="11.1" data-type="pcb_smtpad" data-pcb-layer="top" data-pad-name="LED10.DOUT"/><rect class="pcb-pad" fill="rgb(200, 52, 52)" x="718.9" y="287.9" width="8.4" height="11.1" data-type="pcb_smtpad" data-pcb-layer="top" data-pad-name="LED10.VCC"/><rect class="pcb-pad" fill="rgb(200, 52, 52)" x="718.9" y="301.1" width="8.4" height="11.1" data-type="pcb_smtpad" data-pcb-layer="top" data-pad-name="LED10.GND"/><rect class="pcb-pad" fill="rgb(200, 52, 52)" x="157.1" y="273.5" width="5.7" height="6.7" data-type="pcb_smtpad" data-pcb-layer="top" data-pad-name="C1.pin1"/><rect class="pcb-pad" fill="rgb(200, 52, 52)" x="167.8" y="273.5" width="5.7" height="6.7" data-type="pcb_smtpad" data-pcb-layer="top" data-pad-name="C1.pin2"/><rect class="pcb-pad" fill="rgb(200, 52, 52)" x="220.2" y="273.5" width="5.7" height="6.7" data-type="pcb_smtpad" data-pcb-layer="top" data-pad-name="C2.pin1"/><rect class="pcb-pad" fill="rgb(200, 52, 52)" x="230.9" y="273.5" width="5.7" height="6.7" data-type="pcb_smtpad" data-pcb-layer="top" data-pad-name="C2.pin2"/><rect class="pcb-pad" fill="rgb(200, 52, 52)" x="283.4" y="273.5" width="5.7" height="6.7" data-type="pcb_smtpad" data-pcb-layer="top" data-pad-name="C3.pin1"/><rect class="pcb-pad" fill="rgb(200, 52, 52)" x="294.1" y="273.5" width="5.7" height="6.7" data-type="pcb_smtpad" data-pcb-layer="top" data-pad-name="C3.pin2"/><rect class="pcb-pad" fill="rgb(200, 52, 52)" x="346.5" y="273.5" width="5.7" height="6.7" data-type="pcb_smtpad" data-pcb-layer="top" data-pad-name="C4.pin1"/><rect class="pcb-pad" fill="rgb(200, 52, 52)" x="357.3" y="273.5" width="5.7" height="6.7" data-type="pcb_smtpad" data-pcb-layer="top" data-pad-name="C4.pin2"/><rect class="pcb-pad" fill="rgb(200, 52, 52)" x="409.7" y="273.5" width="5.7" height="6.7" data-type="pcb_smtpad" data-pcb-layer="top" data-pad-name="C5.pin1"/><rect class="pcb-pad" fill="rgb(200, 52, 52)" x="420.4" y="273.5" width="5.7" height="6.7" data-type="pcb_smtpad" data-pcb-layer="top" data-pad-name="C5.pin2"/><rect class="pcb-pad" fill="rgb(200, 52, 52)" x="472.8" y="273.5" width="5.7" height="6.7" data-type="pcb_smtpad" data-pcb-layer="top" data-pad-name="C6.pin1"/><rect class="pcb-pad" fill="rgb(200, 52, 52)" x="483.6" y="273.5" width="5.7" height="6.7" data-type="pcb_smtpad" data-pcb-layer="top" data-pad-name="C6.pin2"/><rect class="pcb-pad" fill="rgb(200, 52, 52)" x="536" y="273.5" width="5.7" height="6.7" data-type="pcb_smtpad" data-pcb-layer="top" data-pad-name="C7.pin1"/><rect class="pcb-pad" fill="rgb(200, 52, 52)" x="546.7" y="273.5" width="5.7" height="6.7" data-type="pcb_smtpad" data-pcb-layer="top" data-pad-name="C7.pin2"/><rect class="pcb-pad" fill="rgb(200, 52, 52)" x="599.2" y="273.5" width="5.7" height="6.7" data-type="pcb_smtpad" data-pcb-layer="top" data-pad-name="C8.pin1"/><rect class="pcb-pad" fill="rgb(200, 52, 52)" x="609.9" y="273.5" width="5.7" height="6.7" data-type="pcb_smtpad" data-pcb-layer="top" data-pad-name="C8.pin2"/><rect class="pcb-pad" fill="rgb(200, 52, 52)" x="662.3" y="273.5" width="5.7" height="6.7" data-type="pcb_smtpad" data-pcb-layer="top" data-pad-name="C9.pin1"/><rect class="pcb-pad" fill="rgb(200, 52, 52)" x="673.1" y="273.5" width="5.7" height="6.7" data-type="pcb_smtpad" data-pcb-layer="top" data-pad-name="C9.pin2"/><rect class="pcb-pad" fill="rgb(200, 52, 52)" x="725.5" y="273.5" width="5.7" height="6.7" data-type="pcb_smtpad" data-pcb-layer="top" data-pad-name="C10.pin1"/><rect class="pcb-pad" fill="rgb(200, 52, 52)" x="736.2" y="273.5" width="5.7" height="6.7" data-type="pcb_smtpad" data-pcb-layer="top" data-pad-name="C10.pin2"/><rect x="43.2" y="248.4" width="61.1" height="103.2" class="pcb-silkscreen-rect pcb-silkscreen-top" data-pcb-silkscreen-rect-id="pcb_silkscreen_rect_0" data-type="pcb_silkscreen_rect" data-pcb-layer="top" fill="none" stroke="#f2eda1" stroke-width="2.1"/><text x="0" y="0" dx="0" dy="0" fill="#f2eda1" font-family="Arial, sans-serif" font-size="7.9" text-anchor="middle" dominant-baseline="central" transform="matrix(0,1,-1,0,93.7,300)" class="pcb-silkscreen-text pcb-silkscreen-top" data-pcb-silkscreen-text-id="pcb_silkscreen_text_0" stroke="none" data-type="pcb_silkscreen_text" data-pcb-layer="top">GROVE</text><rect x="118.9" y="288.4" width="35.8" height="23.2" class="pcb-silkscreen-rect pcb-silkscreen-top" data-pcb-silkscreen-rect-id="pcb_silkscreen_rect_1" data-type="pcb_silkscreen_rect" data-pcb-layer="top" fill="none" stroke="#f2eda1" stroke-width="1.9"/><rect x="182.1" y="288.4" width="35.8" height="23.2" class="pcb-silkscreen-rect pcb-silkscreen-top" data-pcb-silkscreen-rect-id="pcb_silkscreen_rect_2" data-type="pcb_silkscreen_rect" data-pcb-layer="top" fill="none" stroke="#f2eda1" stroke-width="1.9"/><rect x="245.3" y="288.4" width="35.8" height="23.2" class="pcb-silkscreen-rect pcb-silkscreen-top" data-pcb-silkscreen-rect-id="pcb_silkscreen_rect_3" data-type="pcb_silkscreen_rect" data-pcb-layer="top" fill="none" stroke="#f2eda1" stroke-width="1.9"/><rect x="308.4" y="288.4" width="35.8" height="23.2" class="pcb-silkscreen-rect pcb-silkscreen-top" data-pcb-silkscreen-rect-id="pcb_silkscreen_rect_4" data-type="pcb_silkscreen_rect" data-pcb-layer="top" fill="none" stroke="#f2eda1" stroke-width="1.9"/><rect x="371.6" y="288.4" width="35.8" height="23.2" class="pcb-silkscreen-rect pcb-silkscreen-top" data-pcb-silkscreen-rect-id="pcb_silkscreen_rect_5" data-type="pcb_silkscreen_rect" data-pcb-layer="top" fill="none" stroke="#f2eda1" stroke-width="1.9"/><rect x="434.7" y="288.4" width="35.8" height="23.2" class="pcb-silkscreen-rect pcb-silkscreen-top" data-pcb-silkscreen-rect-id="pcb_silkscreen_rect_6" data-type="pcb_silkscreen_rect" data-pcb-layer="top" fill="none" stroke="#f2eda1" stroke-width="1.9"/><rect x="497.9" y="288.4" width="35.8" height="23.2" class="pcb-silkscreen-rect pcb-silkscreen-top" data-pcb-silkscreen-rect-id="pcb_silkscreen_rect_7" data-type="pcb_silkscreen_rect" data-pcb-layer="top" fill="none" stroke="#f2eda1" stroke-width="1.9"/><rect x="561.1" y="288.4" width="35.8" height="23.2" class="pcb-silkscreen-rect pcb-silkscreen-top" data-pcb-silkscreen-rect-id="pcb_silkscreen_rect_8" data-type="pcb_silkscreen_rect" data-pcb-layer="top" fill="none" stroke="#f2eda1" stroke-width="1.9"/><rect x="624.2" y="288.4" width="35.8" height="23.2" class="pcb-silkscreen-rect pcb-silkscreen-top" data-pcb-silkscreen-rect-id="pcb_silkscreen_rect_9" data-type="pcb_silkscreen_rect" data-pcb-layer="top" fill="none" stroke="#f2eda1" stroke-width="1.9"/><rect x="687.4" y="288.4" width="35.8" height="23.2" class="pcb-silkscreen-rect pcb-silkscreen-top" data-pcb-silkscreen-rect-id="pcb_silkscreen_rect_10" data-type="pcb_silkscreen_rect" data-pcb-layer="top" fill="none" stroke="#f2eda1" stroke-width="1.9"/><path class="pcb-silkscreen pcb-silkscreen-top" d="M 170.6 269.3 L 154.9 269.3 L 154.9 284.4 L 170.6 284.4" fill="none" stroke="#f2eda1" stroke-width="1.1" stroke-linecap="round" stroke-linejoin="round" data-pcb-component-id="pcb_component_11" data-pcb-silkscreen-path-id="pcb_silkscreen_path_0" data-type="pcb_silkscreen_path" data-pcb-layer="top"/><text x="0" y="0" dx="0" dy="0" fill="#f2eda1" font-family="Arial, sans-serif" font-size="4.2" text-anchor="middle" dominant-baseline="central" transform="matrix(1,0,0,1,165.3,264)" class="pcb-silkscreen-text pcb-silkscreen-top" data-pcb-silkscreen-text-id="pcb_silkscreen_text_1" stroke="none" data-type="pcb_silkscreen_text" data-pcb-layer="top">C1</text><path class="pcb-silkscreen pcb-silkscreen-top" d="M 233.8 269.3 L 218.1 269.3 L 218.1 284.4 L 233.8 284.4" fill="none" stroke="#f2eda1" stroke-width="1.1" stroke-linecap="round" stroke-linejoin="round" data-pcb-component-id="pcb_component_12" data-pcb-silkscreen-path-id="pcb_silkscreen_path_1" data-type="pcb_silkscreen_path" data-pcb-layer="top"/><text x="0" y="0" dx="0" dy="0" fill="#f2eda1" font-family="Arial, sans-serif" font-size="4.2" text-anchor="middle" dominant-baseline="central" transform="matrix(1,0,0,1,228.4,264)" class="pcb-silkscreen-text pcb-silkscreen-top" data-pcb-silkscreen-text-id="pcb_silkscreen_text_2" stroke="none" data-type="pcb_silkscreen_text" data-pcb-layer="top">C2</text><path class="pcb-silkscreen pcb-silkscreen-top" d="M 296.9 269.3 L 281.3 269.3 L 281.3 284.4 L 296.9 284.4" fill="none" stroke="#f2eda1" stroke-width="1.1" stroke-linecap="round" stroke-linejoin="round" data-pcb-component-id="pcb_component_13" data-pcb-silkscreen-path-id="pcb_silkscreen_path_2" data-type="pcb_silkscreen_path" data-pcb-layer="top"/><text x="0" y="0" dx="0" dy="0" fill="#f2eda1" font-family="Arial, sans-serif" font-size="4.2" text-anchor="middle" dominant-baseline="central" transform="matrix(1,0,0,1,291.6,264)" class="pcb-silkscreen-text pcb-silkscreen-top" data-pcb-silkscreen-text-id="pcb_silkscreen_text_3" stroke="none" data-type="pcb_silkscreen_text" data-pcb-layer="top">C3</text><path class="pcb-silkscreen pcb-silkscreen-top" d="M 360.1 269.3 L 344.4 269.3 L 344.4 284.4 L 360.1 284.4" fill="none" stroke="#f2eda1" stroke-width="1.1" stroke-linecap="round" stroke-linejoin="round" data-pcb-component-id="pcb_component_14" data-pcb-silkscreen-path-id="pcb_silkscreen_path_3" data-type="pcb_silkscreen_path" data-pcb-layer="top"/><text x="0" y="0" dx="0" dy="0" fill="#f2eda1" font-family="Arial, sans-serif" font-size="4.2" text-anchor="middle" dominant-baseline="central" transform="matrix(1,0,0,1,354.7,264)" class="pcb-silkscreen-text pcb-silkscreen-top" data-pcb-silkscreen-text-id="pcb_silkscreen_text_4" stroke="none" data-type="pcb_silkscreen_text" data-pcb-layer="top">C4</text><path class="pcb-silkscreen pcb-silkscreen-top" d="M 423.3 269.3 L 407.6 269.3 L 407.6 284.4 L 423.3 284.4" fill="none" stroke="#f2eda1" stroke-width="1.1" stroke-linecap="round" stroke-linejoin="round" data-pcb-component-id="pcb_component_15" data-pcb-silkscreen-path-id="pcb_silkscreen_path_4" data-type="pcb_silkscreen_path" data-pcb-layer="top"/><text x="0" y="0" dx="0" dy="0" fill="#f2eda1" font-family="Arial, sans-serif" font-size="4.2" text-anchor="middle" dominant-baseline="central" transform="matrix(1,0,0,1,417.9,264)" class="pcb-silkscreen-text pcb-silkscreen-top" data-pcb-silkscreen-text-id="pcb_silkscreen_text_5" stroke="none" data-type="pcb_silkscreen_text" data-pcb-layer="top">C5</text><path class="pcb-silkscreen pcb-silkscreen-top" d="M 486.4 269.3 L 470.7 269.3 L 470.7 284.4 L 486.4 284.4" fill="none" stroke="#f2eda1" stroke-width="1.1" stroke-linecap="round" stroke-linejoin="round" data-pcb-component-id="pcb_component_16" data-pcb-silkscreen-path-id="pcb_silkscreen_path_5" data-type="pcb_silkscreen_path" data-pcb-layer="top"/><text x="0" y="0" dx="0" dy="0" fill="#f2eda1" font-family="Arial, sans-serif" font-size="4.2" text-anchor="middle" dominant-baseline="central" transform="matrix(1,0,0,1,481.1,264)" class="pcb-silkscreen-text pcb-silkscreen-top" data-pcb-silkscreen-text-id="pcb_silkscreen_text_6" stroke="none" data-type="pcb_silkscreen_text" data-pcb-layer="top">C6</text><path class="pcb-silkscreen pcb-silkscreen-top" d="M 549.6 269.3 L 533.9 269.3 L 533.9 284.4 L 549.6 284.4" fill="none" stroke="#f2eda1" stroke-width="1.1" stroke-linecap="round" stroke-linejoin="round" data-pcb-component-id="pcb_component_17" data-pcb-silkscreen-path-id="pcb_silkscreen_path_6" data-type="pcb_silkscreen_path" data-pcb-layer="top"/><text x="0" y="0" dx="0" dy="0" fill="#f2eda1" font-family="Arial, sans-serif" font-size="4.2" text-anchor="middle" dominant-baseline="central" transform="matrix(1,0,0,1,544.2,264)" class="pcb-silkscreen-text pcb-silkscreen-top" data-pcb-silkscreen-text-id="pcb_silkscreen_text_7" stroke="none" data-type="pcb_silkscreen_text" data-pcb-layer="top">C7</text><path class="pcb-silkscreen pcb-silkscreen-top" d="M 612.7 269.3 L 597.1 269.3 L 597.1 284.4 L 612.7 284.4" fill="none" stroke="#f2eda1" stroke-width="1.1" stroke-linecap="round" stroke-linejoin="round" data-pcb-component-id="pcb_component_18" data-pcb-silkscreen-path-id="pcb_silkscreen_path_7" data-type="pcb_silkscreen_path" data-pcb-layer="top"/><text x="0" y="0" dx="0" dy="0" fill="#f2eda1" font-family="Arial, sans-serif" font-size="4.2" text-anchor="middle" dominant-baseline="central" transform="matrix(1,0,0,1,607.4,264)" class="pcb-silkscreen-text pcb-silkscreen-top" data-pcb-silkscreen-text-id="pcb_silkscreen_text_8" stroke="none" data-type="pcb_silkscreen_text" data-pcb-layer="top">C8</text><path class="pcb-silkscreen pcb-silkscreen-top" d="M 675.9 269.3 L 660.2 269.3 L 660.2 284.4 L 675.9 284.4" fill="none" stroke="#f2eda1" stroke-width="1.1" stroke-linecap="round" stroke-linejoin="round" data-pcb-component-id="pcb_component_19" data-pcb-silkscreen-path-id="pcb_silkscreen_path_8" data-type="pcb_silkscreen_path" data-pcb-layer="top"/><text x="0" y="0" dx="0" dy="0" fill="#f2eda1" font-family="Arial, sans-serif" font-size="4.2" text-anchor="middle" dominant-baseline="central" transform="matrix(1,0,0,1,670.5,264)" class="pcb-silkscreen-text pcb-silkscreen-top" data-pcb-silkscreen-text-id="pcb_silkscreen_text_9" stroke="none" data-type="pcb_silkscreen_text" data-pcb-layer="top">C9</text><path class="pcb-silkscreen pcb-silkscreen-top" d="M 739.1 269.3 L 723.4 269.3 L 723.4 284.4 L 739.1 284.4" fill="none" stroke="#f2eda1" stroke-width="1.1" stroke-linecap="round" stroke-linejoin="round" data-pcb-component-id="pcb_component_20" data-pcb-silkscreen-path-id="pcb_silkscreen_path_9" data-type="pcb_silkscreen_path" data-pcb-layer="top"/><text x="0" y="0" dx="0" dy="0" fill="#f2eda1" font-family="Arial, sans-serif" font-size="4.2" text-anchor="middle" dominant-baseline="central" transform="matrix(1,0,0,1,733.7,264)" class="pcb-silkscreen-text pcb-silkscreen-top" data-pcb-silkscreen-text-id="pcb_silkscreen_text_10" stroke="none" data-type="pcb_silkscreen_text" data-pcb-layer="top">C10</text><text x="0" y="0" dx="0" dy="0" fill="#f2eda1" font-family="Arial, sans-serif" font-size="6.8" text-anchor="middle" dominant-baseline="central" transform="matrix(1,0,0,1,400,231.6)" class="pcb-silkscreen-text pcb-silkscreen-top" data-pcb-silkscreen-text-id="pcb_silkscreen_text_11" stroke="none" data-type="pcb_silkscreen_text" data-pcb-layer="top">WS2813 RGB LED Strip Waterproof…</text><text x="0" y="0" dx="0" dy="0" fill="#f2eda1" font-family="Arial, sans-serif" font-size="6.3" text-anchor="middle" dominant-baseline="central" transform="matrix(1,0,0,1,400,368.4)" class="pcb-silkscreen-text pcb-silkscreen-top" data-pcb-silkscreen-text-id="pcb_silkscreen_text_12" stroke="none" data-type="pcb_silkscreen_text" data-pcb-layer="top"><![CDATA[Light & LED]]></text><g data-type="pcb_plated_hole" data-pcb-layer="through" data-pad-name="J1.SIG"><circle class="pcb-hole-outer" fill="rgb(200, 52, 52)" cx="73.7" cy="268.4" r="8.4" data-type="pcb_plated_hole" data-pcb-layer="top"/><circle class="pcb-hole-inner" fill="#FF2600" cx="73.7" cy="268.4" r="4.7" data-type="pcb_plated_hole_drill" data-pcb-layer="drill"/></g><g data-type="pcb_plated_hole" data-pcb-layer="through" data-pad-name="J1.NC"><circle class="pcb-hole-outer" fill="rgb(200, 52, 52)" cx="73.7" cy="289.5" r="8.4" data-type="pcb_plated_hole" data-pcb-layer="top"/><circle class="pcb-hole-inner" fill="#FF2600" cx="73.7" cy="289.5" r="4.7" data-type="pcb_plated_hole_drill" data-pcb-layer="drill"/></g><g data-type="pcb_plated_hole" data-pcb-layer="through" data-pad-name="J1.VCC"><circle class="pcb-hole-outer" fill="rgb(200, 52, 52)" cx="73.7" cy="310.5" r="8.4" data-type="pcb_plated_hole" data-pcb-layer="top"/><circle class="pcb-hole-inner" fill="#FF2600" cx="73.7" cy="310.5" r="4.7" data-type="pcb_plated_hole_drill" data-pcb-layer="drill"/></g><g data-type="pcb_plated_hole" data-pcb-layer="through" data-pad-name="J1.GND"><circle class="pcb-hole-outer" fill="rgb(200, 52, 52)" cx="73.7" cy="331.6" r="8.4" data-type="pcb_plated_hole" data-pcb-layer="top"/><circle class="pcb-hole-inner" fill="#FF2600" cx="73.7" cy="331.6" r="4.7" data-type="pcb_plated_hole_drill" data-pcb-layer="drill"/></g><circle class="pcb-hole" cx="52.6" cy="373.7" r="11.6" fill="#FF2600" data-type="pcb_hole" data-pcb-layer="drill"/><circle class="pcb-hole" cx="747.4" cy="373.7" r="11.6" fill="#FF2600" data-type="pcb_hole" data-pcb-layer="drill"/><circle class="pcb-hole" cx="747.4" cy="226.3" r="11.6" fill="#FF2600" data-type="pcb_hole" data-pcb-layer="drill"/><circle class="pcb-hole" cx="52.6" cy="226.3" r="11.6" fill="#FF2600" data-type="pcb_hole" data-pcb-layer="drill"/></svg>